<?xml version="1.0" standalone="no"?>
<svg xmlns:xlink="http://www.w3.org/1999/xlink" id="wave" style="transform:rotate(0deg); transition: 0.3s" viewBox="0 0 1440 400" version="1.1" xmlns="http://www.w3.org/2000/svg"><defs><linearGradient id="sw-gradient-0" x1="0" x2="0" y1="1" y2="0"><stop stop-color="rgba(27, 50, 113, 1)" offset="0%"/><stop stop-color="rgba(27, 50, 113, 1)" offset="100%"/></linearGradient></defs><path style="transform:translate(0, 0px); opacity:1" fill="url(#sw-gradient-0)" d="M0,160L80,180C160,200,320,240,480,233.3C640,227,800,173,960,166.7C1120,160,1280,200,1440,200C1600,200,1760,160,1920,120C2080,80,2240,40,2400,46.7C2560,53,2720,107,2880,120C3040,133,3200,107,3360,126.7C3520,147,3680,213,3840,233.3C4000,253,4160,227,4320,226.7C4480,227,4640,253,4800,280C4960,307,5120,333,5280,300C5440,267,5600,173,5760,160C5920,147,6080,213,6240,260C6400,307,6560,333,6720,340C6880,347,7040,333,7200,313.3C7360,293,7520,267,7680,260C7840,253,8000,267,8160,266.7C8320,267,8480,253,8640,246.7C8800,240,8960,240,9120,233.3C9280,227,9440,213,9600,186.7C9760,160,9920,120,10080,100C10240,80,10400,80,10560,93.3C10720,107,10880,133,11040,153.3C11200,173,11360,187,11440,193.3L11520,200L11520,400L11440,400C11360,400,11200,400,11040,400C10880,400,10720,400,10560,400C10400,400,10240,400,10080,400C9920,400,9760,400,9600,400C9440,400,9280,400,9120,400C8960,400,8800,400,8640,400C8480,400,8320,400,8160,400C8000,400,7840,400,7680,400C7520,400,7360,400,7200,400C7040,400,6880,400,6720,400C6560,400,6400,400,6240,400C6080,400,5920,400,5760,400C5600,400,5440,400,5280,400C5120,400,4960,400,4800,400C4640,400,4480,400,4320,400C4160,400,4000,400,3840,400C3680,400,3520,400,3360,400C3200,400,3040,400,2880,400C2720,400,2560,400,2400,400C2240,400,2080,400,1920,400C1760,400,1600,400,1440,400C1280,400,1120,400,960,400C800,400,640,400,480,400C320,400,160,400,80,400L0,400Z"/></svg>